<?xml version="1.0" standalone="no"?>
<!DOCTYPE svg PUBLIC "-//W3C//DTD SVG 20010904//EN"
 "http://www.w3.org/TR/2001/REC-SVG-20010904/DTD/svg10.dtd">
<svg version="1.0" xmlns="http://www.w3.org/2000/svg"
 width="512.000000pt" height="509.000000pt" viewBox="0 0 512.000000 509.000000"
 preserveAspectRatio="xMidYMid meet">

<g transform="translate(0.000000,509.000000) scale(0.100000,-0.100000)"
fill="#000000" stroke="none">
<path d="M1385 4118 c-3 -7 -4 -742 -3 -1633 l3 -1620 200 0 200 0 3 850 2
850 131 75 c152 86 214 113 244 106 13 -3 43 -39 76 -91 30 -47 76 -120 104
-163 90 -140 199 -226 340 -268 84 -25 254 -22 355 6 41 11 82 22 90 23 13 2
15 -81 18 -689 l2 -691 53 -7 c28 -3 118 -6 200 -6 l147 0 0 1635 0 1635 -147
0 c-82 0 -172 -3 -200 -6 l-53 -7 0 -783 0 -784 -42 -18 c-191 -84 -345 -84
-459 0 -17 13 -69 83 -116 157 -154 244 -201 292 -311 317 -93 22 -237 -18
-374 -103 -21 -13 -42 -23 -48 -23 -6 0 -11 211 -12 623 l-3 622 -198 3 c-152
2 -199 0 -202 -10z"/>
</g>
</svg>
